<?xml version="1.0" encoding="UTF-8"?>
<svg width="1004px" height="308px" viewBox="0 0 1004 308" version="1.1" xmlns="http://www.w3.org/2000/svg" xmlns:xlink="http://www.w3.org/1999/xlink">
    <!-- Generator: Sketch 48.2 (47327) - http://www.bohemiancoding.com/sketch -->
    <title>1-main</title>
    <desc>Created with Sketch.</desc>
    <defs></defs>
    <g id="Page-1" stroke="none" stroke-width="1" fill="none" fill-rule="evenodd">
        <g id="1-main">
            <path d="M325.664,222.152 C317.407959,222.152 309.992033,220.448017 303.416,217.04 C296.839967,213.631983 291.704018,208.90403 288.008,202.856 C284.311982,196.80797 282.464,189.944038 282.464,182.264 C282.464,174.583962 284.311982,167.72003 288.008,161.672 C291.704018,155.62397 296.839967,150.896017 303.416,147.488 C309.992033,144.079983 317.407959,142.376 325.664,142.376 C333.824041,142.376 340.95197,144.079983 347.048,147.488 C353.14403,150.896017 357.583986,155.767968 360.368,162.104 L342.944,171.464 C338.91198,164.359964 333.104038,160.808 325.52,160.808 C319.663971,160.808 314.816019,162.727981 310.976,166.568 C307.135981,170.408019 305.216,175.639967 305.216,182.264 C305.216,188.888033 307.135981,194.119981 310.976,197.96 C314.816019,201.800019 319.663971,203.72 325.52,203.72 C333.200038,203.72 339.00798,200.168036 342.944,193.064 L360.368,202.568 C357.583986,208.712031 353.14403,213.511983 347.048,216.968 C340.95197,220.424017 333.824041,222.152 325.664,222.152 Z M374.048,143.528 L396.368,143.528 L396.368,189.608 L434.096,143.528 L454.688,143.528 L454.688,221 L432.368,221 L432.368,174.92 L394.784,221 L374.048,221 L374.048,143.528 Z M476.288,143.528 L498.608,143.528 L498.608,173.768 L532.304,173.768 L532.304,143.528 L554.768,143.528 L554.768,221 L532.304,221 L532.304,192.056 L498.608,192.056 L498.608,221 L476.288,221 L476.288,143.528 Z M612.512,222.152 C604.351959,222.152 597.032032,220.448017 590.552,217.04 C584.071968,213.631983 579.008018,208.90403 575.36,202.856 C571.711982,196.80797 569.888,189.944038 569.888,182.264 C569.888,174.583962 571.711982,167.72003 575.36,161.672 C579.008018,155.62397 584.071968,150.896017 590.552,147.488 C597.032032,144.079983 604.351959,142.376 612.512,142.376 C620.672041,142.376 627.967968,144.079983 634.4,147.488 C640.832032,150.896017 645.871982,155.62397 649.52,161.672 C653.168018,167.72003 654.992,174.583962 654.992,182.264 C654.992,189.944038 653.168018,196.80797 649.52,202.856 C645.871982,208.90403 640.832032,213.631983 634.4,217.04 C627.967968,220.448017 620.672041,222.152 612.512,222.152 Z M612.512,203.72 C618.272029,203.72 622.999982,201.776019 626.696,197.888 C630.392018,193.999981 632.24,188.792033 632.24,182.264 C632.24,175.735967 630.392018,170.528019 626.696,166.64 C622.999982,162.751981 618.272029,160.808 612.512,160.808 C606.751971,160.808 602.000019,162.751981 598.256,166.64 C594.511981,170.528019 592.64,175.735967 592.64,182.264 C592.64,188.792033 594.511981,193.999981 598.256,197.888 C602.000019,201.776019 606.751971,203.72 612.512,203.72 Z M735.488,161.96 L709.28,161.96 L709.28,221 L686.96,221 L686.96,161.96 L660.752,161.96 L660.752,143.528 L735.488,143.528 L735.488,161.96 Z M783.728,222.152 C775.567959,222.152 768.248032,220.448017 761.768,217.04 C755.287968,213.631983 750.224018,208.90403 746.576,202.856 C742.927982,196.80797 741.104,189.944038 741.104,182.264 C741.104,174.583962 742.927982,167.72003 746.576,161.672 C750.224018,155.62397 755.287968,150.896017 761.768,147.488 C768.248032,144.079983 775.567959,142.376 783.728,142.376 C791.888041,142.376 799.183968,144.079983 805.616,147.488 C812.048032,150.896017 817.087982,155.62397 820.736,161.672 C824.384018,167.72003 826.208,174.583962 826.208,182.264 C826.208,189.944038 824.384018,196.80797 820.736,202.856 C817.087982,208.90403 812.048032,213.631983 805.616,217.04 C799.183968,220.448017 791.888041,222.152 783.728,222.152 Z M783.728,203.72 C789.488029,203.72 794.215982,201.776019 797.912,197.888 C801.608018,193.999981 803.456,188.792033 803.456,182.264 C803.456,175.735967 801.608018,170.528019 797.912,166.64 C794.215982,162.751981 789.488029,160.808 783.728,160.808 C777.967971,160.808 773.216019,162.751981 769.472,166.64 C765.727981,170.528019 763.856,175.735967 763.856,182.264 C763.856,188.792033 765.727981,193.999981 769.472,197.888 C773.216019,201.776019 777.967971,203.72 783.728,203.72 Z M887.264,142.376 C894.464036,142.376 901.01597,144.031983 906.92,147.344 C912.82403,150.656017 917.455983,155.31197 920.816,161.312 C924.176017,167.31203 925.856,174.29596 925.856,182.264 C925.856,190.23204 924.176017,197.21597 920.816,203.216 C917.455983,209.21603 912.82403,213.871983 906.92,217.184 C901.01597,220.496017 894.464036,222.152 887.264,222.152 C877.375951,222.152 869.600028,219.032031 863.936,212.792 L863.936,248.936 L841.472,248.936 L841.472,143.528 L862.928,143.528 L862.928,152.456 C868.496028,145.735966 876.607947,142.376 887.264,142.376 Z M883.376,203.72 C889.136029,203.72 893.863982,201.776019 897.56,197.888 C901.256018,193.999981 903.104,188.792033 903.104,182.264 C903.104,175.735967 901.256018,170.528019 897.56,166.64 C893.863982,162.751981 889.136029,160.808 883.376,160.808 C877.615971,160.808 872.888018,162.751981 869.192,166.64 C865.495982,170.528019 863.648,175.735967 863.648,182.264 C863.648,188.792033 865.495982,193.999981 869.192,197.888 C872.888018,201.776019 877.615971,203.72 883.376,203.72 Z M1003.616,161.96 L963.872,161.96 L963.872,221 L941.552,221 L941.552,143.528 L1003.616,143.528 L1003.616,161.96 Z" id="синоторг" fill="#04091E"></path>
            <g id="pagoda" fill-rule="nonzero">
                <rect id="Rectangle-path" fill="#D19884" x="122" y="249" width="39" height="49"></rect>
                <rect id="Rectangle-path" fill="#C1765B" x="74" y="249" width="39" height="49"></rect>
                <polygon id="Shape" fill="#3F3736" points="31 219 204 219 189.269074 190 45.7309264 190"></polygon>
                <polygon id="Shape" fill="#3F3736" points="51 140 185 140 170.237955 111 65.7620447 111"></polygon>
                <polygon id="Shape" fill="#3F3736" points="117.999671 34 78 62 158 62"></polygon>
                <path d="M79.898739,86.5 L79.898739,101 L154,101 L154,72 L75,72 L75,81.6666667 C77.7065794,81.6666667 79.898739,83.8307111 79.898739,86.5 Z" id="Shape" fill="#FF382E"></path>
                <path d="M60.9331875,165.5 L60.9331875,180 L175,180 L175,151 L56,151 L56,160.666667 C58.7256124,160.666667 60.9331875,162.830711 60.9331875,165.5 Z" id="Shape" fill="#FF382E"></path>
                <path d="M40.9433465,243.785714 L40.9433465,298 L64,298 L64,248.714286 L62.3530962,248.714286 C59.6245059,248.714286 57.4123847,246.5076 57.4123847,243.785714 C57.4123847,241.063829 59.6245059,238.857143 62.3530962,238.857143 L64,238.857143 L64,229 L36,229 L36,238.857143 C38.7312253,238.857143 40.9433465,241.063829 40.9433465,243.785714 Z" id="Shape" fill="#FF382E"></path>
                <path d="M194,229 L171,229 L171,238.857143 L172.642857,238.857143 C175.364743,238.857143 177.571429,241.063829 177.571429,243.785714 C177.571429,246.5076 175.364743,248.714286 172.642857,248.714286 L171,248.714286 L171,298 L194,298 L194,229 Z" id="Shape" fill="#FF382E"></path>
                <rect id="Rectangle-path" fill="#FF382E" x="74" y="229" width="87" height="10"></rect>
                <path d="M231.08174,298.170213 L204.370744,298.170213 L204.370744,229.361702 L212.555272,229.361702 C222.941789,229.347285 232.228295,222.779677 235.713194,213.007557 C236.625062,210.450502 235.290364,207.639183 232.733068,206.727634 C230.175116,205.81674 227.362811,207.150315 226.450943,209.706715 C224.687516,214.652409 220.45267,218.221932 215.45411,219.231779 L197.296716,182.929064 C196.463513,181.263898 194.761708,180.212111 192.899293,180.212111 L184.704932,180.212111 L184.704932,150.722749 L192.88946,150.722749 C203.275977,150.708332 212.562483,144.140723 216.047381,134.368604 C216.95925,131.812204 215.624552,129.00023 213.067256,128.088681 C210.508649,127.177787 207.696999,128.511362 206.785131,131.067762 C205.021704,136.013455 200.786202,139.582979 195.788297,140.592826 L177.630903,104.290111 C176.798356,102.624945 175.095896,101.573157 173.233481,101.573157 L165.03912,101.573157 L165.03912,72.0837957 L173.224959,72.0837957 C183.59181,72.0831404 192.892738,65.5109447 196.380914,55.7296511 C197.292782,53.1725957 195.958085,50.3612766 193.400788,49.4497277 C190.842836,48.5381787 188.029876,49.8724085 187.118663,52.4288085 C185.188727,57.8410894 180.30161,61.6091745 174.690766,62.1720936 L122.916824,25.315634 L122.916824,4.91489362 C122.916824,2.2005617 120.71549,0 118.000207,0 C115.284923,0 113.08359,2.2005617 113.08359,4.91489362 L113.08359,25.3169447 L61.3096468,62.1734043 C55.7001147,61.6104851 50.8129975,57.8430553 48.8824059,52.4327404 C47.9698818,49.8756851 45.1549547,48.5414553 42.6002806,49.4549702 C40.0429842,50.3671745 38.7089422,53.1784936 39.6214663,55.7348936 C43.1089865,65.5148766 52.4105702,72.0851064 62.765621,72.0851064 L155.204575,72.0851064 L155.204575,101.574468 L80.7932164,101.574468 L80.7932164,86.8297872 C80.7932164,84.1154553 78.5918831,81.9148936 75.8765995,81.9148936 C73.1600047,81.9168596 70.9599825,84.1161106 70.9599825,86.8297872 L70.9599825,101.574468 L62.765621,101.574468 C60.9032065,101.574468 59.200746,102.626255 58.3681988,104.291421 L40.2108047,140.594136 C35.2135553,139.584289 30.9787092,136.016077 29.2146271,131.071694 C28.3027585,128.514638 25.4878315,127.180409 22.9325018,128.093923 C20.3752054,129.006128 19.0411634,131.817447 19.9536875,134.373847 C23.4425188,144.153174 32.7441025,150.723404 43.0991533,150.723404 L174.871042,150.723404 L174.871042,180.212766 L61.1267487,180.212766 L61.1267487,165.468085 C61.1267487,162.753753 58.9254154,160.553191 56.2101318,160.553191 C53.493537,160.555157 51.2935148,162.754409 51.2935148,165.468085 L51.2935148,180.212766 L43.0991533,180.212766 C41.2367388,180.212766 39.5342783,181.264553 38.7017311,182.929719 L20.544337,219.232434 C15.5470876,218.222587 11.3122415,214.654374 9.54815939,209.709991 C8.63563529,207.152936 5.82070821,205.820017 3.26603406,206.732221 C0.708737706,207.644426 -0.625304354,210.455745 0.287219748,213.012145 C3.77605112,222.791472 13.0776348,229.361702 23.4326856,229.361702 L64.4044933,229.361702 L64.4044933,239.191489 L62.765621,239.191489 C60.0503374,239.191489 57.8490041,241.392051 57.8490041,244.106383 C57.8490041,246.820715 60.0503374,249.021277 62.765621,249.021277 L64.4044933,249.021277 L64.4044933,298.170213 L41.460281,298.170213 L41.460281,244.106383 C41.460281,241.392051 39.2589477,239.191489 36.5436641,239.191489 C33.8270693,239.193455 31.6270471,241.392706 31.6270471,244.106383 L31.6270471,298.170213 L4.91736179,298.170213 C2.20207815,298.170213 0.000744868237,300.370774 0.000744868237,303.085106 C0.000744868237,305.799438 2.20207815,308 4.91736179,308 L231.08174,308 C233.797024,308 235.998357,305.799438 235.998357,303.085106 C235.998357,300.370774 233.797024,298.170213 231.08174,298.170213 Z M113.082279,249.021277 L113.082279,298.170213 L74.2377272,298.170213 L74.2377272,249.021277 L113.082279,249.021277 Z M122.915512,249.021277 L161.760064,249.021277 L161.760064,298.170213 L122.915512,298.170213 L122.915512,249.021277 Z M171.593298,249.021277 L173.23217,249.021277 C175.947454,249.021277 178.148787,246.820715 178.148787,244.106383 C178.148787,241.392051 175.947454,239.191489 173.23217,239.191489 L171.593298,239.191489 L171.593298,229.361702 L194.53751,229.361702 L194.53751,298.170213 L171.593298,298.170213 L171.593298,249.021277 Z M189.860169,190.042553 L204.610019,219.531915 L31.3877718,219.531915 L46.1376226,190.042553 L189.860169,190.042553 Z M170.193701,111.404255 L184.943552,140.893617 L51.0542395,140.893617 L65.8040903,111.404255 L170.193701,111.404255 Z M117.998896,33.8852426 L157.852337,62.2553191 L78.1461098,62.2553191 L117.998896,33.8852426 Z M74.2377272,229.361702 L161.760064,229.361702 L161.760064,239.191489 L74.2377272,239.191489 L74.2377272,229.361702 Z" id="Shape" fill="#1C1918"></path>
            </g>
        </g>
    </g>
</svg>